<mxfile host="Electron" agent="Mozilla/5.0 (Windows NT 10.0; Win64; x64) AppleWebKit/537.36 (KHTML, like Gecko) draw.io/24.7.17 Chrome/128.0.6613.36 Electron/32.0.1 Safari/537.36" version="24.7.17">
  <diagram name="Page-1" id="VtywFUF4F4trXI7MMzc6">
    <mxGraphModel dx="794" dy="511" grid="1" gridSize="10" guides="1" tooltips="1" connect="1" arrows="1" fold="1" page="1" pageScale="1" pageWidth="850" pageHeight="1100" math="0" shadow="0">
      <root>
        <mxCell id="0" />
        <mxCell id="1" parent="0" />
        <mxCell id="NPV117N_Wh05jeGOwyTA-4" value="AWS Cloud" style="points=[[0,0],[0.25,0],[0.5,0],[0.75,0],[1,0],[1,0.25],[1,0.5],[1,0.75],[1,1],[0.75,1],[0.5,1],[0.25,1],[0,1],[0,0.75],[0,0.5],[0,0.25]];outlineConnect=0;gradientColor=none;html=1;whiteSpace=wrap;fontSize=12;fontStyle=0;container=1;pointerEvents=0;collapsible=0;recursiveResize=0;shape=mxgraph.aws4.group;grIcon=mxgraph.aws4.group_aws_cloud_alt;strokeColor=#232F3E;fillColor=none;verticalAlign=top;align=left;spacingLeft=30;fontColor=#232F3E;dashed=0;" vertex="1" parent="1">
          <mxGeometry x="80" y="50" width="750" height="510" as="geometry" />
        </mxCell>
        <mxCell id="NPV117N_Wh05jeGOwyTA-15" value="Availability Zone" style="fillColor=none;strokeColor=#147EBA;dashed=1;verticalAlign=top;fontStyle=0;fontColor=#147EBA;whiteSpace=wrap;html=1;" vertex="1" parent="NPV117N_Wh05jeGOwyTA-4">
          <mxGeometry x="330" y="81.25" width="272" height="290" as="geometry" />
        </mxCell>
        <mxCell id="NPV117N_Wh05jeGOwyTA-7" value="VPC" style="points=[[0,0],[0.25,0],[0.5,0],[0.75,0],[1,0],[1,0.25],[1,0.5],[1,0.75],[1,1],[0.75,1],[0.5,1],[0.25,1],[0,1],[0,0.75],[0,0.5],[0,0.25]];outlineConnect=0;gradientColor=none;html=1;whiteSpace=wrap;fontSize=12;fontStyle=0;container=1;pointerEvents=0;collapsible=0;recursiveResize=0;shape=mxgraph.aws4.group;grIcon=mxgraph.aws4.group_vpc2;strokeColor=#8C4FFF;fillColor=none;verticalAlign=top;align=left;spacingLeft=30;fontColor=#AAB7B8;dashed=0;" vertex="1" parent="NPV117N_Wh05jeGOwyTA-4">
          <mxGeometry x="20" y="60" width="610" height="330" as="geometry" />
        </mxCell>
        <mxCell id="NPV117N_Wh05jeGOwyTA-14" value="Availability Zone" style="fillColor=none;strokeColor=#147EBA;dashed=1;verticalAlign=top;fontStyle=0;fontColor=#147EBA;whiteSpace=wrap;html=1;" vertex="1" parent="NPV117N_Wh05jeGOwyTA-7">
          <mxGeometry x="20" y="20" width="270" height="290" as="geometry" />
        </mxCell>
        <mxCell id="NPV117N_Wh05jeGOwyTA-11" value="Private subnet" style="points=[[0,0],[0.25,0],[0.5,0],[0.75,0],[1,0],[1,0.25],[1,0.5],[1,0.75],[1,1],[0.75,1],[0.5,1],[0.25,1],[0,1],[0,0.75],[0,0.5],[0,0.25]];outlineConnect=0;gradientColor=none;html=1;whiteSpace=wrap;fontSize=12;fontStyle=0;container=1;pointerEvents=0;collapsible=0;recursiveResize=0;shape=mxgraph.aws4.group;grIcon=mxgraph.aws4.group_security_group;grStroke=0;strokeColor=#00A4A6;fillColor=#E6F6F7;verticalAlign=top;align=left;spacingLeft=30;fontColor=#147EBA;dashed=0;" vertex="1" parent="NPV117N_Wh05jeGOwyTA-7">
          <mxGeometry x="150" y="45" width="118" height="250" as="geometry" />
        </mxCell>
        <mxCell id="NPV117N_Wh05jeGOwyTA-9" value="Public subnet" style="points=[[0,0],[0.25,0],[0.5,0],[0.75,0],[1,0],[1,0.25],[1,0.5],[1,0.75],[1,1],[0.75,1],[0.5,1],[0.25,1],[0,1],[0,0.75],[0,0.5],[0,0.25]];outlineConnect=0;gradientColor=none;html=1;whiteSpace=wrap;fontSize=12;fontStyle=0;container=1;pointerEvents=0;collapsible=0;recursiveResize=0;shape=mxgraph.aws4.group;grIcon=mxgraph.aws4.group_security_group;grStroke=0;strokeColor=#7AA116;fillColor=#F2F6E8;verticalAlign=top;align=left;spacingLeft=30;fontColor=#248814;dashed=0;" vertex="1" parent="NPV117N_Wh05jeGOwyTA-7">
          <mxGeometry x="20" y="45" width="118" height="250" as="geometry" />
        </mxCell>
        <mxCell id="NPV117N_Wh05jeGOwyTA-33" value="Public IP &amp;amp; Private IP" style="text;html=1;align=center;verticalAlign=middle;whiteSpace=wrap;rounded=0;fontFamily=Times New Roman;fontStyle=1" vertex="1" parent="NPV117N_Wh05jeGOwyTA-7">
          <mxGeometry x="20" y="86" width="120" height="30" as="geometry" />
        </mxCell>
        <mxCell id="NPV117N_Wh05jeGOwyTA-54" value="" style="endArrow=classic;html=1;rounded=0;strokeColor=#00CC00;strokeWidth=2;" edge="1" parent="NPV117N_Wh05jeGOwyTA-7">
          <mxGeometry width="50" height="50" relative="1" as="geometry">
            <mxPoint x="390" y="371.25" as="sourcePoint" />
            <mxPoint x="390" y="301.25" as="targetPoint" />
          </mxGeometry>
        </mxCell>
        <mxCell id="NPV117N_Wh05jeGOwyTA-60" value="LB" style="sketch=0;outlineConnect=0;fontColor=#232F3E;gradientColor=none;strokeColor=#ffffff;fillColor=#232F3E;dashed=0;verticalLabelPosition=middle;verticalAlign=bottom;align=center;html=1;whiteSpace=wrap;fontSize=10;fontStyle=1;spacing=3;shape=mxgraph.aws4.productIcon;prIcon=mxgraph.aws4.elastic_load_balancing;" vertex="1" parent="NPV117N_Wh05jeGOwyTA-7">
          <mxGeometry x="99" y="250" width="25" height="40" as="geometry" />
        </mxCell>
        <mxCell id="NPV117N_Wh05jeGOwyTA-5" value="Region" style="points=[[0,0],[0.25,0],[0.5,0],[0.75,0],[1,0],[1,0.25],[1,0.5],[1,0.75],[1,1],[0.75,1],[0.5,1],[0.25,1],[0,1],[0,0.75],[0,0.5],[0,0.25]];outlineConnect=0;gradientColor=none;html=1;whiteSpace=wrap;fontSize=12;fontStyle=0;container=0;pointerEvents=0;collapsible=0;recursiveResize=0;shape=mxgraph.aws4.group;grIcon=mxgraph.aws4.group_region;strokeColor=#00A4A6;fillColor=none;verticalAlign=top;align=left;spacingLeft=30;fontColor=#147EBA;dashed=1;" vertex="1" parent="NPV117N_Wh05jeGOwyTA-4">
          <mxGeometry x="10" y="30" width="730" height="480" as="geometry" />
        </mxCell>
        <mxCell id="NPV117N_Wh05jeGOwyTA-6" value="us-east-2" style="text;html=1;align=center;verticalAlign=middle;whiteSpace=wrap;rounded=0;fillColor=none;fontStyle=1;fontFamily=Times New Roman;" vertex="1" parent="NPV117N_Wh05jeGOwyTA-4">
          <mxGeometry x="590" y="10" width="60" height="30" as="geometry" />
        </mxCell>
        <mxCell id="NPV117N_Wh05jeGOwyTA-17" value="Private subnet" style="points=[[0,0],[0.25,0],[0.5,0],[0.75,0],[1,0],[1,0.25],[1,0.5],[1,0.75],[1,1],[0.75,1],[0.5,1],[0.25,1],[0,1],[0,0.75],[0,0.5],[0,0.25]];outlineConnect=0;gradientColor=none;html=1;whiteSpace=wrap;fontSize=12;fontStyle=0;container=0;pointerEvents=0;collapsible=0;recursiveResize=0;shape=mxgraph.aws4.group;grIcon=mxgraph.aws4.group_security_group;grStroke=0;strokeColor=#00A4A6;fillColor=#E6F6F7;verticalAlign=top;align=left;spacingLeft=30;fontColor=#147EBA;dashed=0;" vertex="1" parent="NPV117N_Wh05jeGOwyTA-4">
          <mxGeometry x="484" y="111.25" width="118" height="250" as="geometry" />
        </mxCell>
        <mxCell id="NPV117N_Wh05jeGOwyTA-16" value="Public subnet" style="points=[[0,0],[0.25,0],[0.5,0],[0.75,0],[1,0],[1,0.25],[1,0.5],[1,0.75],[1,1],[0.75,1],[0.5,1],[0.25,1],[0,1],[0,0.75],[0,0.5],[0,0.25]];outlineConnect=0;gradientColor=none;html=1;whiteSpace=wrap;fontSize=12;fontStyle=0;container=1;pointerEvents=0;collapsible=0;recursiveResize=0;shape=mxgraph.aws4.group;grIcon=mxgraph.aws4.group_security_group;grStroke=0;strokeColor=#7AA116;fillColor=#F2F6E8;verticalAlign=top;align=left;spacingLeft=30;fontColor=#248814;dashed=0;" vertex="1" parent="NPV117N_Wh05jeGOwyTA-4">
          <mxGeometry x="350" y="111.25" width="118" height="250" as="geometry" />
        </mxCell>
        <mxCell id="NPV117N_Wh05jeGOwyTA-20" value="us-east-2b" style="text;html=1;align=center;verticalAlign=middle;whiteSpace=wrap;rounded=0;fontFamily=Times New Roman;fontStyle=1" vertex="1" parent="NPV117N_Wh05jeGOwyTA-16">
          <mxGeometry x="191" y="-28.75" width="60" height="30" as="geometry" />
        </mxCell>
        <mxCell id="NPV117N_Wh05jeGOwyTA-63" value="LB" style="sketch=0;outlineConnect=0;fontColor=#232F3E;gradientColor=none;strokeColor=#ffffff;fillColor=#232F3E;dashed=0;verticalLabelPosition=middle;verticalAlign=bottom;align=center;html=1;whiteSpace=wrap;fontSize=10;fontStyle=1;spacing=3;shape=mxgraph.aws4.productIcon;prIcon=mxgraph.aws4.elastic_load_balancing;" vertex="1" parent="NPV117N_Wh05jeGOwyTA-16">
          <mxGeometry x="46.5" y="198.75" width="25" height="40" as="geometry" />
        </mxCell>
        <mxCell id="NPV117N_Wh05jeGOwyTA-19" value="us-east-2a" style="text;html=1;align=center;verticalAlign=middle;whiteSpace=wrap;rounded=0;fontStyle=1;fontFamily=Times New Roman;" vertex="1" parent="NPV117N_Wh05jeGOwyTA-4">
          <mxGeometry x="250" y="81.25" width="60" height="30" as="geometry" />
        </mxCell>
        <mxCell id="NPV117N_Wh05jeGOwyTA-21" value="" style="outlineConnect=0;dashed=0;verticalLabelPosition=bottom;verticalAlign=top;align=center;html=1;shape=mxgraph.aws3.internet_gateway;fillColor=#F58534;gradientColor=none;" vertex="1" parent="NPV117N_Wh05jeGOwyTA-4">
          <mxGeometry x="650" y="120" width="60" height="60" as="geometry" />
        </mxCell>
        <mxCell id="NPV117N_Wh05jeGOwyTA-22" style="edgeStyle=orthogonalEdgeStyle;rounded=0;orthogonalLoop=1;jettySize=auto;html=1;fontColor=#FF0000;spacing=2;labelBackgroundColor=#FF0000;strokeColor=#00CC00;strokeWidth=2;entryX=0.278;entryY=0.931;entryDx=0;entryDy=0;entryPerimeter=0;" edge="1" parent="NPV117N_Wh05jeGOwyTA-4" source="NPV117N_Wh05jeGOwyTA-21" target="NPV117N_Wh05jeGOwyTA-14">
          <mxGeometry relative="1" as="geometry">
            <Array as="points">
              <mxPoint x="680" y="430" />
              <mxPoint x="115" y="430" />
            </Array>
          </mxGeometry>
        </mxCell>
        <mxCell id="NPV117N_Wh05jeGOwyTA-25" value="Internet Gateway" style="text;html=1;align=center;verticalAlign=middle;whiteSpace=wrap;rounded=0;fontStyle=1;fontFamily=Times New Roman;" vertex="1" parent="NPV117N_Wh05jeGOwyTA-4">
          <mxGeometry x="627" y="104" width="110" height="20" as="geometry" />
        </mxCell>
        <mxCell id="NPV117N_Wh05jeGOwyTA-29" value="" style="verticalLabelPosition=bottom;html=1;verticalAlign=top;strokeWidth=1;align=center;outlineConnect=0;dashed=0;outlineConnect=0;shape=mxgraph.aws3d.application_server;fillColor=#ECECEC;strokeColor=#5E5E5E;aspect=fixed;" vertex="1" parent="NPV117N_Wh05jeGOwyTA-4">
          <mxGeometry x="518.2" y="170" width="49.6" height="50" as="geometry" />
        </mxCell>
        <mxCell id="NPV117N_Wh05jeGOwyTA-30" value="Sensitive Server" style="text;html=1;align=center;verticalAlign=middle;whiteSpace=wrap;rounded=0;fontFamily=Times New Roman;fontStyle=1" vertex="1" parent="NPV117N_Wh05jeGOwyTA-4">
          <mxGeometry x="498" y="218" width="90" height="30" as="geometry" />
        </mxCell>
        <mxCell id="NPV117N_Wh05jeGOwyTA-31" value="&lt;font style=&quot;&quot; face=&quot;Times New Roman&quot;&gt;Amazon EC2&lt;/font&gt;" style="sketch=0;outlineConnect=0;fontColor=#232F3E;gradientColor=none;strokeColor=#ffffff;fillColor=#232F3E;dashed=0;verticalLabelPosition=middle;verticalAlign=bottom;align=center;html=1;whiteSpace=wrap;fontSize=10;fontStyle=1;spacing=3;shape=mxgraph.aws4.productIcon;prIcon=mxgraph.aws4.ec2;" vertex="1" parent="NPV117N_Wh05jeGOwyTA-4">
          <mxGeometry x="80" y="170" width="40" height="70" as="geometry" />
        </mxCell>
        <mxCell id="NPV117N_Wh05jeGOwyTA-32" value="Private IP" style="text;html=1;align=center;verticalAlign=middle;whiteSpace=wrap;rounded=0;fontStyle=1;fontFamily=Times New Roman;" vertex="1" parent="NPV117N_Wh05jeGOwyTA-4">
          <mxGeometry x="484" y="150" width="66" height="20" as="geometry" />
        </mxCell>
        <mxCell id="NPV117N_Wh05jeGOwyTA-38" style="edgeStyle=orthogonalEdgeStyle;rounded=0;orthogonalLoop=1;jettySize=auto;html=1;" edge="1" parent="NPV117N_Wh05jeGOwyTA-4" source="NPV117N_Wh05jeGOwyTA-31">
          <mxGeometry relative="1" as="geometry">
            <mxPoint x="106" y="259" as="sourcePoint" />
            <mxPoint x="550" y="221" as="targetPoint" />
            <Array as="points">
              <mxPoint x="106" y="286" />
              <mxPoint x="549" y="286" />
            </Array>
          </mxGeometry>
        </mxCell>
        <mxCell id="NPV117N_Wh05jeGOwyTA-40" value="&lt;font face=&quot;Times New Roman&quot;&gt;&lt;b&gt;ssh -i &amp;lt;private key of private server&amp;gt; &amp;lt;private ip of private server&amp;gt;&lt;/b&gt;&lt;/font&gt;" style="edgeLabel;html=1;align=center;verticalAlign=middle;resizable=0;points=[];" vertex="1" connectable="0" parent="NPV117N_Wh05jeGOwyTA-38">
          <mxGeometry x="-0.0483" relative="1" as="geometry">
            <mxPoint as="offset" />
          </mxGeometry>
        </mxCell>
        <mxCell id="NPV117N_Wh05jeGOwyTA-41" value="Bastion host/jump server" style="text;html=1;align=center;verticalAlign=middle;whiteSpace=wrap;rounded=0;fontFamily=Times New Roman;fontStyle=1" vertex="1" parent="NPV117N_Wh05jeGOwyTA-4">
          <mxGeometry x="36" y="248" width="140" height="30" as="geometry" />
        </mxCell>
        <mxCell id="NPV117N_Wh05jeGOwyTA-48" style="edgeStyle=orthogonalEdgeStyle;rounded=0;orthogonalLoop=1;jettySize=auto;html=1;strokeColor=#FF0000;strokeWidth=2;" edge="1" parent="NPV117N_Wh05jeGOwyTA-4">
          <mxGeometry relative="1" as="geometry">
            <mxPoint x="662" y="177" as="targetPoint" />
            <mxPoint x="662" y="275" as="sourcePoint" />
          </mxGeometry>
        </mxCell>
        <mxCell id="NPV117N_Wh05jeGOwyTA-46" value="" style="sketch=0;outlineConnect=0;fontColor=#232F3E;gradientColor=none;fillColor=#8C4FFF;strokeColor=none;dashed=0;verticalLabelPosition=bottom;verticalAlign=top;align=center;html=1;fontSize=12;fontStyle=0;aspect=fixed;pointerEvents=1;shape=mxgraph.aws4.nat_gateway;" vertex="1" parent="NPV117N_Wh05jeGOwyTA-4">
          <mxGeometry x="632" y="278" width="50" height="50" as="geometry" />
        </mxCell>
        <mxCell id="NPV117N_Wh05jeGOwyTA-50" value="Nat Gateway" style="text;html=1;align=center;verticalAlign=middle;whiteSpace=wrap;rounded=0;fontFamily=Times New Roman;fontStyle=1" vertex="1" parent="NPV117N_Wh05jeGOwyTA-4">
          <mxGeometry x="625" y="329.25" width="60" height="30" as="geometry" />
        </mxCell>
        <mxCell id="NPV117N_Wh05jeGOwyTA-53" style="edgeStyle=orthogonalEdgeStyle;rounded=0;orthogonalLoop=1;jettySize=auto;html=1;entryX=0.662;entryY=0.931;entryDx=0;entryDy=0;entryPerimeter=0;strokeColor=#FF0000;strokeWidth=2;" edge="1" parent="NPV117N_Wh05jeGOwyTA-4" source="NPV117N_Wh05jeGOwyTA-46" target="NPV117N_Wh05jeGOwyTA-14">
          <mxGeometry relative="1" as="geometry">
            <Array as="points">
              <mxPoint x="655" y="410" />
              <mxPoint x="219" y="410" />
            </Array>
          </mxGeometry>
        </mxCell>
        <mxCell id="NPV117N_Wh05jeGOwyTA-26" value="" style="endArrow=classic;html=1;rounded=0;strokeColor=#FF0000;strokeWidth=2;" edge="1" parent="NPV117N_Wh05jeGOwyTA-4">
          <mxGeometry width="50" height="50" relative="1" as="geometry">
            <mxPoint x="530" y="410" as="sourcePoint" />
            <mxPoint x="530" y="361.25" as="targetPoint" />
          </mxGeometry>
        </mxCell>
        <mxCell id="NPV117N_Wh05jeGOwyTA-55" value="" style="verticalLabelPosition=bottom;html=1;verticalAlign=top;strokeWidth=1;align=center;outlineConnect=0;dashed=0;outlineConnect=0;shape=mxgraph.aws3d.application_server;fillColor=#ECECEC;strokeColor=#5E5E5E;aspect=fixed;" vertex="1" parent="NPV117N_Wh05jeGOwyTA-4">
          <mxGeometry x="200.39999999999998" y="170" width="49.6" height="50" as="geometry" />
        </mxCell>
        <mxCell id="NPV117N_Wh05jeGOwyTA-56" value="Sensitive Server" style="text;html=1;align=center;verticalAlign=middle;whiteSpace=wrap;rounded=0;fontFamily=Times New Roman;fontStyle=1" vertex="1" parent="NPV117N_Wh05jeGOwyTA-4">
          <mxGeometry x="176" y="218" width="90" height="30" as="geometry" />
        </mxCell>
        <mxCell id="NPV117N_Wh05jeGOwyTA-57" value="Private IP" style="text;html=1;align=center;verticalAlign=middle;whiteSpace=wrap;rounded=0;fontStyle=1;fontFamily=Times New Roman;" vertex="1" parent="NPV117N_Wh05jeGOwyTA-4">
          <mxGeometry x="170" y="145" width="60" height="30" as="geometry" />
        </mxCell>
        <mxCell id="NPV117N_Wh05jeGOwyTA-58" value="" style="endArrow=none;dashed=1;html=1;rounded=0;entryX=0.25;entryY=1;entryDx=0;entryDy=0;" edge="1" parent="NPV117N_Wh05jeGOwyTA-4" source="NPV117N_Wh05jeGOwyTA-55">
          <mxGeometry width="50" height="50" relative="1" as="geometry">
            <mxPoint x="260" y="195" as="sourcePoint" />
            <mxPoint x="514.5" y="195" as="targetPoint" />
          </mxGeometry>
        </mxCell>
        <mxCell id="NPV117N_Wh05jeGOwyTA-59" value="&lt;font face=&quot;Times New Roman&quot;&gt;&lt;b&gt;High Availability [Hosted in Multiple Zones]&lt;/b&gt;&lt;/font&gt;" style="edgeLabel;html=1;align=center;verticalAlign=middle;resizable=0;points=[];" vertex="1" connectable="0" parent="NPV117N_Wh05jeGOwyTA-58">
          <mxGeometry x="-0.1041" relative="1" as="geometry">
            <mxPoint x="12" as="offset" />
          </mxGeometry>
        </mxCell>
        <mxCell id="NPV117N_Wh05jeGOwyTA-64" value="" style="endArrow=none;dashed=1;html=1;rounded=0;entryX=0.193;entryY=0.567;entryDx=0;entryDy=0;entryPerimeter=0;" edge="1" parent="NPV117N_Wh05jeGOwyTA-4" target="NPV117N_Wh05jeGOwyTA-63">
          <mxGeometry width="50" height="50" relative="1" as="geometry">
            <mxPoint x="145" y="333.7526271738119" as="sourcePoint" />
            <mxPoint x="401.32500000000005" y="328.67999999999995" as="targetPoint" />
          </mxGeometry>
        </mxCell>
        <mxCell id="NPV117N_Wh05jeGOwyTA-66" value="&lt;font face=&quot;Times New Roman&quot;&gt;&lt;b&gt;Single Loadbalancer Hosted in Multiple Zones&lt;/b&gt;&lt;/font&gt;" style="edgeLabel;html=1;align=center;verticalAlign=middle;resizable=0;points=[];" vertex="1" connectable="0" parent="NPV117N_Wh05jeGOwyTA-64">
          <mxGeometry x="0.0065" relative="1" as="geometry">
            <mxPoint x="-4" y="-3" as="offset" />
          </mxGeometry>
        </mxCell>
        <mxCell id="NPV117N_Wh05jeGOwyTA-73" style="edgeStyle=orthogonalEdgeStyle;rounded=0;orthogonalLoop=1;jettySize=auto;html=1;" edge="1" parent="NPV117N_Wh05jeGOwyTA-4">
          <mxGeometry relative="1" as="geometry">
            <mxPoint x="312" y="466" as="sourcePoint" />
            <mxPoint x="401" y="341" as="targetPoint" />
          </mxGeometry>
        </mxCell>
        <mxCell id="NPV117N_Wh05jeGOwyTA-74" style="edgeStyle=orthogonalEdgeStyle;rounded=0;orthogonalLoop=1;jettySize=auto;html=1;" edge="1" parent="NPV117N_Wh05jeGOwyTA-4">
          <mxGeometry relative="1" as="geometry">
            <mxPoint x="280" y="470" as="sourcePoint" />
            <mxPoint x="131.5" y="345" as="targetPoint" />
          </mxGeometry>
        </mxCell>
        <mxCell id="NPV117N_Wh05jeGOwyTA-71" value="&lt;font style=&quot;font-size: 9px;&quot; face=&quot;Times New Roman&quot;&gt;Amazon Route 53&lt;/font&gt;" style="sketch=0;outlineConnect=0;fontColor=#232F3E;gradientColor=none;strokeColor=#ffffff;fillColor=#232F3E;dashed=0;verticalLabelPosition=middle;verticalAlign=bottom;align=center;html=1;whiteSpace=wrap;fontSize=10;fontStyle=1;spacing=3;shape=mxgraph.aws4.productIcon;prIcon=mxgraph.aws4.route_53;" vertex="1" parent="NPV117N_Wh05jeGOwyTA-4">
          <mxGeometry x="280" y="440" width="40" height="70" as="geometry" />
        </mxCell>
        <mxCell id="NPV117N_Wh05jeGOwyTA-75" value="fb.com" style="text;html=1;align=center;verticalAlign=middle;whiteSpace=wrap;rounded=0;fontFamily=Times New Roman;fontStyle=1" vertex="1" parent="NPV117N_Wh05jeGOwyTA-4">
          <mxGeometry x="330" y="470" width="60" height="30" as="geometry" />
        </mxCell>
        <mxCell id="NPV117N_Wh05jeGOwyTA-35" style="edgeStyle=orthogonalEdgeStyle;rounded=0;orthogonalLoop=1;jettySize=auto;html=1;exitX=1;exitY=0.167;exitDx=0;exitDy=0;exitPerimeter=0;" edge="1" parent="1" source="NPV117N_Wh05jeGOwyTA-34">
          <mxGeometry relative="1" as="geometry">
            <mxPoint x="120" y="580" as="sourcePoint" />
            <mxPoint x="167" y="283" as="targetPoint" />
            <Array as="points">
              <mxPoint x="80" y="580" />
              <mxPoint x="167" y="580" />
            </Array>
          </mxGeometry>
        </mxCell>
        <mxCell id="NPV117N_Wh05jeGOwyTA-34" value="Actor" style="shape=umlActor;verticalLabelPosition=bottom;verticalAlign=top;html=1;outlineConnect=0;" vertex="1" parent="1">
          <mxGeometry x="54" y="570" width="30" height="60" as="geometry" />
        </mxCell>
        <mxCell id="NPV117N_Wh05jeGOwyTA-36" value="SSH Via Putty" style="text;html=1;align=center;verticalAlign=middle;whiteSpace=wrap;rounded=0;fontFamily=Times New Roman;fontStyle=1" vertex="1" parent="1">
          <mxGeometry x="143" y="575" width="90" height="30" as="geometry" />
        </mxCell>
        <mxCell id="NPV117N_Wh05jeGOwyTA-76" value="Actor" style="shape=umlActor;verticalLabelPosition=bottom;verticalAlign=top;html=1;outlineConnect=0;" vertex="1" parent="1">
          <mxGeometry x="321" y="598" width="30" height="48" as="geometry" />
        </mxCell>
        <mxCell id="NPV117N_Wh05jeGOwyTA-79" style="edgeStyle=orthogonalEdgeStyle;rounded=0;orthogonalLoop=1;jettySize=auto;html=1;" edge="1" parent="1" source="NPV117N_Wh05jeGOwyTA-77" target="NPV117N_Wh05jeGOwyTA-5">
          <mxGeometry relative="1" as="geometry" />
        </mxCell>
        <mxCell id="NPV117N_Wh05jeGOwyTA-77" value="Actor" style="shape=umlActor;verticalLabelPosition=bottom;verticalAlign=top;html=1;outlineConnect=0;" vertex="1" parent="1">
          <mxGeometry x="440" y="598" width="30" height="49" as="geometry" />
        </mxCell>
        <mxCell id="NPV117N_Wh05jeGOwyTA-78" style="edgeStyle=orthogonalEdgeStyle;rounded=0;orthogonalLoop=1;jettySize=auto;html=1;entryX=0.337;entryY=1.011;entryDx=0;entryDy=0;entryPerimeter=0;" edge="1" parent="1" source="NPV117N_Wh05jeGOwyTA-76" target="NPV117N_Wh05jeGOwyTA-5">
          <mxGeometry relative="1" as="geometry" />
        </mxCell>
        <mxCell id="NPV117N_Wh05jeGOwyTA-80" value="" style="rounded=1;arcSize=10;dashed=1;strokeColor=#ff0000;fillColor=none;gradientColor=none;dashPattern=8 4;strokeWidth=2;" vertex="1" parent="1">
          <mxGeometry x="270" y="216" width="70" height="64" as="geometry" />
        </mxCell>
        <mxCell id="NPV117N_Wh05jeGOwyTA-81" value="" style="rounded=1;arcSize=10;dashed=1;strokeColor=#ff0000;fillColor=none;gradientColor=none;dashPattern=8 4;strokeWidth=2;" vertex="1" parent="1">
          <mxGeometry x="591" y="216" width="66" height="64" as="geometry" />
        </mxCell>
      </root>
    </mxGraphModel>
  </diagram>
</mxfile>
